# xmcd
#
# Track frame offsets:
#	150
#	12844
#	25407
#	36491
#	51425
#	67483
#	81670
#	98621
#	109523
#	125675
#
# Disc length: 1811 seconds
#
# Revision: 1
# Processed by: cddbd v1.5.2PL0 Copyright (c) Steve Scherf et al.
# Submitted via: audiograbber 1.83.01
#
DISCID=9007110a
DTITLE=Hank Williams Jr. - High Notes
DYEAR=1982
DGENRE=Country
TTITLE0=If Heaven Ain't A Lot Like Dixie
TTITLE1=Whiskey On Ice
TTITLE2=High And Pressurized
TTITLE3=I Can't Change My Tune
TTITLE4=The South's Gonna Rattle Again
TTITLE5=Ain't Makin' No Headlines (Here Without You)
TTITLE6=I've Been Down
TTITLE7=If You Wanna Get To Heaven
TTITLE8=Norwegian Wood (This Bird Has Flown)
TTITLE9=Honky Tonkin'
EXTD=
EXTT0=
EXTT1=
EXTT2=
EXTT3=
EXTT4=
EXTT5=
EXTT6=
EXTT7=
EXTT8=
EXTT9=
PLAYORDER=
